<svg data-name="Layer 1" xmlns="http://www.w3.org/2000/svg" viewBox="0 0 1460.91 1772.14" width="2061" height="2500"><defs><linearGradient id="a" x1="1036.55" y1="1158.94" x2="159.49" y2="-7.36" gradientTransform="rotate(-.02 601.48 716.302)" gradientUnits="userSpaceOnUse"><stop offset="0" stop-color="#167fe1"/><stop offset="1" stop-color="#02acfb"/></linearGradient></defs><title>blue</title><path d="M115 250.13C50.29 256.64 1.44 311.81 1.46 376.8L0 858.54c-.92 307.2 153.78 594.39 411.72 761.22C497 1674.89 599.78 1727 723.84 1772.14c0 0 549.1-155.49 699.93-588.72 0 0 .63-1.62 1.72-4.52a553.8 553.8 0 0 0 35.42-195.25l-.17-604.57c0-48.24-29.42-92-74.53-109.11-20.32-7.7-46.06-13.13-78.66-14.16 0 0-363.18-32.71-551.4-247.07 0 0-24.07-19.68-45.94 0 0 0-216.53 238.53-579.71 240.82a102.3 102.3 0 0 0-15.5.57z" fill="url(#a)"/><path d="M1110.86 995.35S1089 872.84 927 831.32c0 0 160.77-75.62 139.07-237.79-8.27-61.79-42.25-117.4-92.88-153.78-35.76-25.7-86.21-49.37-151.34-50.34l-468.19.13v126.89h87.51l.19 682.6s-24.05 30.64-87.5 35v105l475.1-.14a236.21 236.21 0 0 0 71.37-10.89c82.42-26.09 247.79-113.88 210.53-332.65zM618.47 533.86h160.08a130.83 130.83 0 0 1 35.66 4.65c84 23.72 82.15 115.64 82.15 115.64 0 60.44-32.72 91.36-62.72 107a141.35 141.35 0 0 1-65.34 15.55H618.54zm310.82 525.65c0 70.9-38.38 107.18-73.58 125.54-23.61 12.31-50 18.23-76.66 18.24H603.34l-.08-284.91 187.81-.06a153.78 153.78 0 0 1 41.84 5.46c98.5 27.89 96.38 135.73 96.38 135.73z" fill="#fff"/></svg>
